<svg xmlns="http://www.w3.org/2000/svg"  viewBox="0 0 24 24" width="512px" height="512px"><polygon points="1.026,23.567 1.025,23.559 1.024,23.556"/><path fill="#41B883" d="M0.696,2.25L12,21.75l11.304-19.5h-4.522L12,13.95L5.161,2.25H0.696z"/><path fill="#35495E" d="M5.161,2.25L12,14.007L18.783,2.25H14.6L12,6.772L9.343,2.25H5.161z"/><path d="M12,23c-0.271,0-0.521-0.146-0.654-0.382L0.096,2.623c-0.13-0.232-0.128-0.517,0.006-0.747 C0.237,1.646,0.483,1.505,0.75,1.505h4.268C5.045,1.502,5.074,1.5,5.103,1.5h4.241c0.269,0,0.516,0.144,0.65,0.376L12,5.364 l2.009-3.488c0.134-0.232,0.382-0.376,0.65-0.376H18.9c0.032,0,0.063,0.002,0.094,0.006h4.256c0.267,0,0.513,0.142,0.647,0.371 c0.134,0.23,0.137,0.515,0.006,0.747l-11.25,19.994C12.521,22.854,12.271,23,12,23z M2.033,3.005L12,20.721l9.967-17.715h-3.07 c-0.032,0-0.063-0.002-0.094-0.006h-3.71L12.65,7.241C12.516,7.474,12.268,7.617,12,7.617l0,0c-0.269,0-0.516-0.144-0.65-0.376 L8.91,3H5.188C5.161,3.003,5.132,3.005,5.103,3.005H2.033z"/></svg>