<svg xmlns="http://www.w3.org/2000/svg"  viewBox="0 0 36 36" width="512px" height="512px"><path fill="#EFEFEF" d="M13.411,34.999c6.298-2.859,12.105-1.559,15.14-2.936c3.035-1.378,8.617-6.016,2.28-19.978	S14.99-0.035,11.651,1.48C-3.981,8.575,2.256,40.062,13.411,34.999z"/><rect width="2" height="1" x="7.076" y="4.677" fill="#A4AFC1" transform="rotate(-45.001 8.076 5.177)"/><rect width="2.001" height="1" x="3.01" y="8.743" fill="#A4AFC1" transform="rotate(-45.001 4.01 9.243)"/><rect width="1" height="2" x="3.51" y="4" fill="#A4AFC1" transform="rotate(-45.009 4.01 5)"/><path fill="#A4AFC1" d="M32,12.667c-0.827,0-1.5-0.673-1.5-1.5s0.673-1.5,1.5-1.5s1.5,0.673,1.5,1.5S32.827,12.667,32,12.667z M32,10.667c-0.276,0-0.5,0.225-0.5,0.5s0.224,0.5,0.5,0.5s0.5-0.225,0.5-0.5S32.276,10.667,32,10.667z"/><polygon fill="#2FDF84" points="24.9,8.25 20.659,8.25 18,12.867 15.344,8.25 11.103,8.25 11.103,8.255 6.75,8.255 18,28.25 29.25,8.256 24.897,8.256"/><g><rect width="2.25" height=".005" x="11.103" y="8.25" fill="#00B871"/><polygon fill="#00B871" points="20.25,12.867 22.909,8.25 20.659,8.25 19.126,10.913"/><polygon fill="#00B871" points="9,8.255 6.75,8.255 18,28.25 19.125,26.25"/></g><g><path d="M18,29c-0.271,0-0.521-0.146-0.654-0.382L6.096,8.623c-0.13-0.232-0.128-0.517,0.006-0.747 C6.237,7.646,6.483,7.505,6.75,7.505h4.268C11.045,7.502,11.074,7.5,11.103,7.5h4.241c0.269,0,0.516,0.144,0.65,0.376L18,11.364 l2.009-3.488c0.134-0.232,0.382-0.376,0.65-0.376H24.9c0.032,0,0.063,0.002,0.094,0.006h4.256c0.267,0,0.513,0.142,0.647,0.371 c0.134,0.23,0.137,0.515,0.006,0.747l-11.25,19.994C18.521,28.854,18.271,29,18,29z M8.033,9.005L18,26.721l9.967-17.715h-3.07 c-0.032,0-0.063-0.002-0.094-0.006h-3.71l-2.443,4.241c-0.134,0.232-0.382,0.376-0.65,0.376l0,0c-0.269,0-0.516-0.144-0.65-0.376 L14.91,9h-3.722c-0.028,0.003-0.057,0.005-0.085,0.005H8.033z"/></g></svg>